<svg width="320" height="212" viewBox="0 0 320 212" fill="none" xmlns="http://www.w3.org/2000/svg">
<g filter="url(#filter0_d_0_141)">
<path fill-rule="evenodd" clip-rule="evenodd" d="M8 18C8 16.8954 8.89543 16 10 16H314C315.105 16 316 16.8954 316 18V194C316 195.105 315.105 196 314 196H10C8.89543 196 8 195.105 8 194V18Z" fill="white"/>
</g>
<path d="M104.223 119.12H101.933V121H100.627V119.12H99.2119V118.04H100.627V117.104H99.2119V116.03H100.627V111.047H104.298C105.364 111.047 106.21 111.318 106.834 111.86C107.458 112.403 107.771 113.136 107.771 114.062C107.771 115.032 107.47 115.782 106.868 116.311C106.271 116.835 105.421 117.099 104.318 117.104H101.933V118.04H104.223V119.12ZM101.933 116.03H104.298C105.004 116.03 105.542 115.864 105.911 115.531C106.28 115.199 106.465 114.713 106.465 114.075C106.465 113.496 106.273 113.029 105.891 112.674C105.508 112.314 104.991 112.132 104.339 112.127H101.933V116.03ZM113.52 119.12H111.229V121H109.924V119.12H108.509V118.04H109.924V117.104H108.509V116.03H109.924V111.047H113.595C114.661 111.047 115.507 111.318 116.131 111.86C116.755 112.403 117.067 113.136 117.067 114.062C117.067 115.032 116.767 115.782 116.165 116.311C115.568 116.835 114.718 117.099 113.615 117.104H111.229V118.04H113.52V119.12ZM111.229 116.03H113.595C114.301 116.03 114.839 115.864 115.208 115.531C115.577 115.199 115.762 114.713 115.762 114.075C115.762 113.496 115.57 113.029 115.188 112.674C114.805 112.314 114.287 112.132 113.636 112.127H111.229V116.03ZM122.816 119.12H120.526V121H119.221V119.12H117.806V118.04H119.221V117.104H117.806V116.03H119.221V111.047H122.892C123.958 111.047 124.803 111.318 125.428 111.86C126.052 112.403 126.364 113.136 126.364 114.062C126.364 115.032 126.063 115.782 125.462 116.311C124.865 116.835 124.015 117.099 122.912 117.104H120.526V118.04H122.816V119.12ZM120.526 116.03H122.892C123.598 116.03 124.136 115.864 124.505 115.531C124.874 115.199 125.059 114.713 125.059 114.075C125.059 113.496 124.867 113.029 124.484 112.674C124.102 112.314 123.584 112.132 122.933 112.127H120.526V116.03ZM131.307 115.723C131.307 115.326 131.432 115 131.683 114.745C131.938 114.49 132.275 114.362 132.694 114.362C133.109 114.362 133.446 114.488 133.706 114.738C133.966 114.984 134.096 115.319 134.096 115.743V115.996C134.096 116.393 133.97 116.716 133.72 116.967C133.469 117.217 133.13 117.343 132.701 117.343C132.277 117.343 131.938 117.217 131.683 116.967C131.432 116.712 131.307 116.383 131.307 115.982V115.723ZM145.334 116.399H141.021V119.927H146.031V121H139.708V111.047H145.963V112.127H141.021V115.326H145.334V116.399ZM147.583 121V113.604H150.468C151.452 113.604 152.206 113.777 152.73 114.123C153.259 114.465 153.523 114.968 153.523 115.634C153.523 115.976 153.421 116.285 153.216 116.563C153.011 116.837 152.708 117.047 152.307 117.192C152.753 117.297 153.111 117.502 153.38 117.808C153.653 118.113 153.79 118.478 153.79 118.901C153.79 119.58 153.539 120.1 153.038 120.46C152.541 120.82 151.837 121 150.926 121H147.583ZM148.848 117.753V119.981H150.939C151.468 119.981 151.862 119.883 152.122 119.688C152.386 119.492 152.519 119.216 152.519 118.86C152.519 118.122 151.976 117.753 150.892 117.753H148.848ZM148.848 116.741H150.481C151.666 116.741 152.259 116.395 152.259 115.702C152.259 115.009 151.698 114.652 150.577 114.629H148.848V116.741ZM161.713 117.384C161.713 118.509 161.455 119.416 160.94 120.104C160.425 120.793 159.728 121.137 158.849 121.137C157.951 121.137 157.244 120.852 156.729 120.282V123.844H155.465V113.604H156.62L156.682 114.424C157.197 113.786 157.912 113.467 158.828 113.467C159.717 113.467 160.419 113.802 160.934 114.472C161.453 115.142 161.713 116.074 161.713 117.268V117.384ZM160.448 117.24C160.448 116.406 160.271 115.748 159.915 115.265C159.56 114.782 159.072 114.54 158.452 114.54C157.687 114.54 157.112 114.88 156.729 115.559V119.093C157.108 119.767 157.687 120.104 158.466 120.104C159.072 120.104 159.553 119.865 159.908 119.387C160.268 118.904 160.448 118.188 160.448 117.24ZM162.991 117.233C162.991 116.509 163.132 115.857 163.415 115.278C163.702 114.7 164.099 114.253 164.604 113.938C165.115 113.624 165.696 113.467 166.348 113.467C167.355 113.467 168.168 113.815 168.788 114.513C169.412 115.21 169.725 116.137 169.725 117.295V117.384C169.725 118.104 169.586 118.751 169.308 119.325C169.034 119.895 168.64 120.339 168.125 120.658C167.615 120.977 167.027 121.137 166.361 121.137C165.359 121.137 164.545 120.788 163.921 120.091C163.301 119.394 162.991 118.471 162.991 117.322V117.233ZM164.263 117.384C164.263 118.204 164.452 118.863 164.83 119.359C165.213 119.856 165.723 120.104 166.361 120.104C167.004 120.104 167.514 119.854 167.893 119.353C168.271 118.847 168.46 118.14 168.46 117.233C168.46 116.422 168.266 115.766 167.879 115.265C167.496 114.759 166.986 114.506 166.348 114.506C165.723 114.506 165.22 114.754 164.837 115.251C164.454 115.748 164.263 116.459 164.263 117.384ZM177.36 121H176.096V114.649H172.691V121H171.42V113.604H177.36V121ZM182.46 121.137C181.457 121.137 180.642 120.809 180.013 120.152C179.384 119.492 179.069 118.61 179.069 117.507V117.274C179.069 116.541 179.208 115.887 179.486 115.312C179.769 114.734 180.161 114.283 180.662 113.959C181.168 113.631 181.715 113.467 182.303 113.467C183.264 113.467 184.012 113.784 184.545 114.417C185.078 115.05 185.345 115.957 185.345 117.138V117.664H180.334C180.352 118.393 180.564 118.983 180.97 119.435C181.38 119.881 181.899 120.104 182.528 120.104C182.975 120.104 183.353 120.013 183.663 119.831C183.973 119.649 184.244 119.407 184.477 119.106L185.249 119.708C184.629 120.66 183.7 121.137 182.46 121.137ZM182.303 114.506C181.792 114.506 181.364 114.693 181.018 115.066C180.671 115.436 180.457 115.955 180.375 116.625H184.08V116.529C184.044 115.887 183.87 115.39 183.561 115.039C183.251 114.684 182.831 114.506 182.303 114.506ZM191.6 113.604H192.864V121H191.6V115.606L188.188 121H186.924V113.604H188.188V119.004L191.6 113.604ZM191.941 110.91C191.941 111.462 191.752 111.906 191.374 112.243C191 112.576 190.508 112.742 189.897 112.742C189.287 112.742 188.792 112.574 188.414 112.236C188.036 111.899 187.847 111.457 187.847 110.91H188.879C188.879 111.229 188.965 111.48 189.139 111.662C189.312 111.84 189.565 111.929 189.897 111.929C190.216 111.929 190.465 111.84 190.643 111.662C190.825 111.484 190.916 111.234 190.916 110.91H191.941ZM197.861 120.104C198.312 120.104 198.707 119.968 199.044 119.694C199.381 119.421 199.568 119.079 199.604 118.669H200.801C200.778 119.093 200.632 119.496 200.363 119.879C200.094 120.262 199.734 120.567 199.283 120.795C198.837 121.023 198.363 121.137 197.861 121.137C196.854 121.137 196.052 120.802 195.455 120.132C194.863 119.457 194.566 118.537 194.566 117.37V117.158C194.566 116.438 194.699 115.798 194.963 115.237C195.227 114.677 195.605 114.242 196.098 113.932C196.594 113.622 197.18 113.467 197.854 113.467C198.684 113.467 199.372 113.715 199.919 114.212C200.47 114.709 200.764 115.354 200.801 116.146H199.604C199.568 115.668 199.386 115.276 199.058 114.971C198.734 114.661 198.333 114.506 197.854 114.506C197.212 114.506 196.713 114.738 196.357 115.203C196.007 115.663 195.831 116.331 195.831 117.206V117.445C195.831 118.298 196.007 118.954 196.357 119.414C196.708 119.874 197.21 120.104 197.861 120.104ZM204.526 117.849H203.604V121H202.332V113.604H203.604V116.734H204.431L206.919 113.604H208.45L205.524 117.158L208.696 121H207.09L204.526 117.849ZM214.35 121C214.277 120.854 214.217 120.594 214.172 120.221C213.584 120.831 212.882 121.137 212.066 121.137C211.337 121.137 210.738 120.932 210.269 120.521C209.804 120.107 209.571 119.583 209.571 118.949C209.571 118.179 209.863 117.582 210.446 117.158C211.034 116.73 211.859 116.516 212.921 116.516H214.151V115.935C214.151 115.493 214.019 115.142 213.755 114.882C213.491 114.618 213.101 114.485 212.586 114.485C212.135 114.485 211.757 114.599 211.451 114.827C211.146 115.055 210.993 115.331 210.993 115.654H209.722C209.722 115.285 209.852 114.93 210.111 114.588C210.376 114.242 210.731 113.968 211.178 113.768C211.629 113.567 212.123 113.467 212.661 113.467C213.513 113.467 214.181 113.681 214.664 114.109C215.147 114.533 215.398 115.119 215.416 115.866V119.271C215.416 119.95 215.503 120.49 215.676 120.891V121H214.35ZM212.251 120.036C212.647 120.036 213.023 119.934 213.379 119.729C213.734 119.523 213.992 119.257 214.151 118.929V117.411H213.16C211.611 117.411 210.836 117.865 210.836 118.771C210.836 119.168 210.968 119.478 211.232 119.701C211.497 119.924 211.836 120.036 212.251 120.036ZM223.052 113.604V121H221.78V118.122H219.873L218.13 121H216.763L218.622 117.931C218.148 117.757 217.784 117.491 217.528 117.131C217.278 116.766 217.152 116.342 217.152 115.859C217.152 115.185 217.405 114.643 217.911 114.232C218.417 113.818 219.094 113.608 219.941 113.604H223.052ZM218.424 115.873C218.424 116.233 218.547 116.525 218.793 116.748C219.039 116.967 219.365 117.078 219.771 117.083H221.78V114.629H219.962C219.493 114.629 219.119 114.745 218.841 114.978C218.563 115.205 218.424 115.504 218.424 115.873Z" fill="#626262"/>
<path fill-rule="evenodd" clip-rule="evenodd" d="M113 156C113 147.163 120.163 140 129 140H195C203.837 140 211 147.163 211 156C211 164.837 203.837 172 195 172H129C120.163 172 113 164.837 113 156Z" fill="#262626"/>
<path d="M136.307 158.135H137.49V159.02H136.307V161H135.217V159.02H131.332V158.381L135.152 152.469H136.307V158.135ZM132.562 158.135H135.217V153.951L135.088 154.186L132.562 158.135ZM143.818 157.361C143.818 158.631 143.602 159.574 143.168 160.191C142.734 160.809 142.057 161.117 141.135 161.117C140.225 161.117 139.551 160.816 139.113 160.215C138.676 159.609 138.449 158.707 138.434 157.508V156.061C138.434 154.807 138.65 153.875 139.084 153.266C139.518 152.656 140.197 152.352 141.123 152.352C142.041 152.352 142.717 152.646 143.15 153.236C143.584 153.822 143.807 154.729 143.818 155.955V157.361ZM142.734 155.879C142.734 154.961 142.605 154.293 142.348 153.875C142.09 153.453 141.682 153.242 141.123 153.242C140.568 153.242 140.164 153.451 139.91 153.869C139.656 154.287 139.525 154.93 139.518 155.797V157.531C139.518 158.453 139.65 159.135 139.916 159.576C140.186 160.014 140.592 160.232 141.135 160.232C141.67 160.232 142.066 160.025 142.324 159.611C142.586 159.197 142.723 158.545 142.734 157.654V155.879ZM150.551 157.818H147.691V156.934H150.551V157.818ZM154.975 156.723L155.408 152.469H159.779V153.471H156.328L156.07 155.797C156.488 155.551 156.963 155.428 157.494 155.428C158.271 155.428 158.889 155.686 159.346 156.201C159.803 156.713 160.031 157.406 160.031 158.281C160.031 159.16 159.793 159.854 159.316 160.361C158.844 160.865 158.182 161.117 157.33 161.117C156.576 161.117 155.961 160.908 155.484 160.49C155.008 160.072 154.736 159.494 154.67 158.756H155.695C155.762 159.244 155.936 159.613 156.217 159.863C156.498 160.109 156.869 160.232 157.33 160.232C157.834 160.232 158.229 160.061 158.514 159.717C158.803 159.373 158.947 158.898 158.947 158.293C158.947 157.723 158.791 157.266 158.479 156.922C158.17 156.574 157.758 156.4 157.242 156.4C156.77 156.4 156.398 156.504 156.129 156.711L155.842 156.945L154.975 156.723ZM166.564 157.361C166.564 158.631 166.348 159.574 165.914 160.191C165.48 160.809 164.803 161.117 163.881 161.117C162.971 161.117 162.297 160.816 161.859 160.215C161.422 159.609 161.195 158.707 161.18 157.508V156.061C161.18 154.807 161.396 153.875 161.83 153.266C162.264 152.656 162.943 152.352 163.869 152.352C164.787 152.352 165.463 152.646 165.896 153.236C166.33 153.822 166.553 154.729 166.564 155.955V157.361ZM165.48 155.879C165.48 154.961 165.352 154.293 165.094 153.875C164.836 153.453 164.428 153.242 163.869 153.242C163.314 153.242 162.91 153.451 162.656 153.869C162.402 154.287 162.271 154.93 162.264 155.797V157.531C162.264 158.453 162.396 159.135 162.662 159.576C162.932 160.014 163.338 160.232 163.881 160.232C164.416 160.232 164.812 160.025 165.07 159.611C165.332 159.197 165.469 158.545 165.48 157.654V155.879ZM174.691 159.564L176.848 154.66H178.201V161H177.117V156.389L175.066 161H174.316L172.225 156.289V161H171.141V154.66H172.547L174.691 159.564ZM184.049 154.66H185.133V161H184.049V156.377L181.125 161H180.041V154.66H181.125V159.289L184.049 154.66ZM192.053 161H190.969V158.293H188.057V161H186.967V154.66H188.057V157.408H190.969V154.66H192.053V161Z" fill="white"/>
<path d="M70.7695 46.7891H65.2852V62H63.0469V46.7891H57.5742V44.9375H70.7695V46.7891ZM82.3828 55.8008C82.3828 57.7305 81.9414 59.2852 81.0586 60.4648C80.1758 61.6445 78.9805 62.2344 77.4727 62.2344C75.9336 62.2344 74.7227 61.7461 73.8398 60.7695V66.875H71.6719V49.3203H73.6523L73.7578 50.7266C74.6406 49.6328 75.8672 49.0859 77.4375 49.0859C78.9609 49.0859 80.1641 49.6602 81.0469 50.8086C81.9375 51.957 82.3828 53.5547 82.3828 55.6016V55.8008ZM80.2148 55.5547C80.2148 54.125 79.9102 52.9961 79.3008 52.168C78.6914 51.3398 77.8555 50.9258 76.793 50.9258C75.4805 50.9258 74.4961 51.5078 73.8398 52.6719V58.7305C74.4883 59.8867 75.4805 60.4648 76.8164 60.4648C77.8555 60.4648 78.6797 60.0547 79.2891 59.2344C79.9063 58.4063 80.2148 57.1797 80.2148 55.5547ZM92.9766 62C92.8516 61.75 92.75 61.3047 92.6719 60.6641C91.6641 61.7109 90.4609 62.2344 89.0625 62.2344C87.8125 62.2344 86.7852 61.8828 85.9805 61.1797C85.1836 60.4687 84.7852 59.5703 84.7852 58.4844C84.7852 57.1641 85.2852 56.1406 86.2852 55.4141C87.293 54.6797 88.707 54.3125 90.5273 54.3125H92.6367V53.3164C92.6367 52.5586 92.4102 51.957 91.957 51.5117C91.5039 51.0586 90.8359 50.832 89.9531 50.832C89.1797 50.832 88.5312 51.0273 88.0078 51.418C87.4844 51.8086 87.2227 52.2813 87.2227 52.8359H85.043C85.043 52.2031 85.2656 51.5938 85.7109 51.0078C86.1641 50.4141 86.7734 49.9453 87.5391 49.6016C88.3125 49.2578 89.1602 49.0859 90.082 49.0859C91.543 49.0859 92.6875 49.4531 93.5156 50.1875C94.3438 50.9141 94.7734 51.918 94.8047 53.1992V59.0352C94.8047 60.1992 94.9531 61.125 95.25 61.8125V62H92.9766ZM89.3789 60.3477C90.0586 60.3477 90.7031 60.1719 91.3125 59.8203C91.9219 59.4688 92.3633 59.0117 92.6367 58.4492V55.8477H90.9375C88.2813 55.8477 86.9531 56.625 86.9531 58.1797C86.9531 58.8594 87.1797 59.3906 87.6328 59.7734C88.0859 60.1563 88.668 60.3477 89.3789 60.3477ZM102.152 56.5977H100.57V62H98.3906V49.3203H100.57V54.6875H101.988L106.254 49.3203H108.879L103.863 55.4141L109.301 62H106.547L102.152 56.5977ZM120.586 51.0781H116.332V62H114.164V51.0781H109.992V49.3203H120.586V51.0781ZM130.898 49.3203H133.066V62H130.898V52.7539L125.051 62H122.883V49.3203H125.051V58.5781L130.898 49.3203ZM147.258 55.8008C147.258 57.7305 146.816 59.2852 145.934 60.4648C145.051 61.6445 143.855 62.2344 142.348 62.2344C140.809 62.2344 139.598 61.7461 138.715 60.7695V66.875H136.547V49.3203H138.527L138.633 50.7266C139.516 49.6328 140.742 49.0859 142.312 49.0859C143.836 49.0859 145.039 49.6602 145.922 50.8086C146.812 51.957 147.258 53.5547 147.258 55.6016V55.8008ZM145.09 55.5547C145.09 54.125 144.785 52.9961 144.176 52.168C143.566 51.3398 142.73 50.9258 141.668 50.9258C140.355 50.9258 139.371 51.5078 138.715 52.6719V58.7305C139.363 59.8867 140.355 60.4648 141.691 60.4648C142.73 60.4648 143.555 60.0547 144.164 59.2344C144.781 58.4063 145.09 57.1797 145.09 55.5547ZM157.617 55.5781L160.641 60.2305H158.988L155.531 55.6836V55.4609L158.988 50.9023H160.641L157.617 55.5781ZM161.484 55.5781L164.508 60.2305H162.855L159.398 55.6836V55.4609L162.855 50.9023H164.508L161.484 55.5781ZM180.621 62H178.359V46.7891H169.945V62H167.695V44.9375H180.621V62ZM188.531 58.8242L191.484 49.3203H193.805L188.707 63.957C187.918 66.0664 186.664 67.1211 184.945 67.1211L184.535 67.0859L183.727 66.9336V65.1758L184.312 65.2227C185.047 65.2227 185.617 65.0742 186.023 64.7773C186.438 64.4805 186.777 63.9375 187.043 63.1484L187.523 61.8594L183 49.3203H185.367L188.531 58.8242ZM198.117 49.3203V60.2305H202.758V49.3203H204.926V60.2305H209.555V49.3203H211.734V62H195.938V49.3203H198.117ZM219.105 56.5977H217.523V62H215.344V49.3203H217.523V54.6875H218.941L223.207 49.3203H225.832L220.816 55.4141L226.254 62H223.5L219.105 56.5977ZM236.32 49.3203H238.488V62H236.32V52.7539L230.473 62H228.305V49.3203H230.473V58.5781L236.32 49.3203ZM252.328 62H250.16V56.5859H244.336V62H242.156V49.3203H244.336V54.8164H250.16V49.3203H252.328V62ZM257.039 50.8789L260.496 55.4375V55.6602L257.039 60.2188H255.375L258.398 55.5547L255.375 50.8789H257.039ZM261.129 50.8789L264.586 55.4375V55.6602L261.129 60.2188H259.465L262.488 55.5547L259.465 50.8789H261.129Z" fill="#1D1D1D"/>
<defs>
<filter id="filter0_d_0_141" x="-8" y="0" width="340" height="212" filterUnits="userSpaceOnUse" color-interpolation-filters="sRGB">
<feFlood flood-opacity="0" result="BackgroundImageFix"/>
<feColorMatrix in="SourceAlpha" type="matrix" values="0 0 0 0 0 0 0 0 0 0 0 0 0 0 0 0 0 0 127 0" result="hardAlpha"/>
<feOffset/>
<feGaussianBlur stdDeviation="8"/>
<feColorMatrix type="matrix" values="0 0 0 0 0.458824 0 0 0 0 0.458824 0 0 0 0 0.458824 0 0 0 0.2 0"/>
<feBlend mode="normal" in2="BackgroundImageFix" result="effect1_dropShadow_0_141"/>
<feBlend mode="normal" in="SourceGraphic" in2="effect1_dropShadow_0_141" result="shape"/>
</filter>
</defs>
</svg>
