<svg width="421" height="236" viewBox="0 0 421 236" fill="none" xmlns="http://www.w3.org/2000/svg">
<g filter="url(#filter0_d_0_391)">
<path fill-rule="evenodd" clip-rule="evenodd" d="M16 18C16 16.8954 16.8954 16 18 16H403C404.105 16 405 16.8954 405 18V218C405 219.105 404.105 220 403 220H18C16.8954 220 16 219.105 16 218V18Z" fill="white"/>
</g>
<path d="M59.2227 169.12H56.9326V171H55.627V169.12H54.2119V168.04H55.627V167.104H54.2119V166.03H55.627V161.047H59.2979C60.3643 161.047 61.2096 161.318 61.834 161.86C62.4583 162.403 62.7705 163.136 62.7705 164.062C62.7705 165.032 62.4697 165.782 61.8682 166.311C61.2712 166.835 60.4212 167.099 59.3184 167.104H56.9326V168.04H59.2227V169.12ZM56.9326 166.03H59.2979C60.0042 166.03 60.542 165.864 60.9111 165.531C61.2803 165.199 61.4648 164.713 61.4648 164.075C61.4648 163.496 61.2734 163.029 60.8906 162.674C60.5078 162.314 59.9906 162.132 59.3389 162.127H56.9326V166.03ZM68.5195 169.12H66.2295V171H64.9238V169.12H63.5088V168.04H64.9238V167.104H63.5088V166.03H64.9238V161.047H68.5947C69.6611 161.047 70.5065 161.318 71.1309 161.86C71.7552 162.403 72.0674 163.136 72.0674 164.062C72.0674 165.032 71.7666 165.782 71.165 166.311C70.568 166.835 69.7181 167.099 68.6152 167.104H66.2295V168.04H68.5195V169.12ZM66.2295 166.03H68.5947C69.3011 166.03 69.8389 165.864 70.208 165.531C70.5771 165.199 70.7617 164.713 70.7617 164.075C70.7617 163.496 70.5703 163.029 70.1875 162.674C69.8047 162.314 69.2874 162.132 68.6357 162.127H66.2295V166.03ZM77.8164 169.12H75.5264V171H74.2207V169.12H72.8057V168.04H74.2207V167.104H72.8057V166.03H74.2207V161.047H77.8916C78.958 161.047 79.8034 161.318 80.4277 161.86C81.0521 162.403 81.3643 163.136 81.3643 164.062C81.3643 165.032 81.0635 165.782 80.4619 166.311C79.8649 166.835 79.015 167.099 77.9121 167.104H75.5264V168.04H77.8164V169.12ZM75.5264 166.03H77.8916C78.598 166.03 79.1357 165.864 79.5049 165.531C79.874 165.199 80.0586 164.713 80.0586 164.075C80.0586 163.496 79.8672 163.029 79.4844 162.674C79.1016 162.314 78.5843 162.132 77.9326 162.127H75.5264V166.03ZM86.3066 165.723C86.3066 165.326 86.432 165 86.6826 164.745C86.9378 164.49 87.2751 164.362 87.6943 164.362C88.109 164.362 88.4463 164.488 88.7061 164.738C88.9658 164.984 89.0957 165.319 89.0957 165.743V165.996C89.0957 166.393 88.9704 166.716 88.7197 166.967C88.4691 167.217 88.1296 167.343 87.7012 167.343C87.2773 167.343 86.9378 167.217 86.6826 166.967C86.432 166.712 86.3066 166.383 86.3066 165.982V165.723ZM100.334 166.399H96.0205V169.927H101.031V171H94.708V161.047H100.963V162.127H96.0205V165.326H100.334V166.399ZM102.583 171V163.604H105.468C106.452 163.604 107.206 163.777 107.73 164.123C108.259 164.465 108.523 164.968 108.523 165.634C108.523 165.976 108.421 166.285 108.216 166.563C108.011 166.837 107.708 167.047 107.307 167.192C107.753 167.297 108.111 167.502 108.38 167.808C108.653 168.113 108.79 168.478 108.79 168.901C108.79 169.58 108.539 170.1 108.038 170.46C107.541 170.82 106.837 171 105.926 171H102.583ZM103.848 167.753V169.981H105.939C106.468 169.981 106.862 169.883 107.122 169.688C107.386 169.492 107.519 169.216 107.519 168.86C107.519 168.122 106.976 167.753 105.892 167.753H103.848ZM103.848 166.741H105.481C106.666 166.741 107.259 166.395 107.259 165.702C107.259 165.009 106.698 164.652 105.577 164.629H103.848V166.741ZM116.713 167.384C116.713 168.509 116.455 169.416 115.94 170.104C115.425 170.793 114.728 171.137 113.849 171.137C112.951 171.137 112.244 170.852 111.729 170.282V173.844H110.465V163.604H111.62L111.682 164.424C112.197 163.786 112.912 163.467 113.828 163.467C114.717 163.467 115.419 163.802 115.934 164.472C116.453 165.142 116.713 166.074 116.713 167.268V167.384ZM115.448 167.24C115.448 166.406 115.271 165.748 114.915 165.265C114.56 164.782 114.072 164.54 113.452 164.54C112.687 164.54 112.112 164.88 111.729 165.559V169.093C112.108 169.767 112.687 170.104 113.466 170.104C114.072 170.104 114.553 169.865 114.908 169.387C115.268 168.904 115.448 168.188 115.448 167.24ZM117.991 167.233C117.991 166.509 118.132 165.857 118.415 165.278C118.702 164.7 119.099 164.253 119.604 163.938C120.115 163.624 120.696 163.467 121.348 163.467C122.355 163.467 123.168 163.815 123.788 164.513C124.412 165.21 124.725 166.137 124.725 167.295V167.384C124.725 168.104 124.586 168.751 124.308 169.325C124.034 169.895 123.64 170.339 123.125 170.658C122.615 170.977 122.027 171.137 121.361 171.137C120.359 171.137 119.545 170.788 118.921 170.091C118.301 169.394 117.991 168.471 117.991 167.322V167.233ZM119.263 167.384C119.263 168.204 119.452 168.863 119.83 169.359C120.213 169.856 120.723 170.104 121.361 170.104C122.004 170.104 122.514 169.854 122.893 169.353C123.271 168.847 123.46 168.14 123.46 167.233C123.46 166.422 123.266 165.766 122.879 165.265C122.496 164.759 121.986 164.506 121.348 164.506C120.723 164.506 120.22 164.754 119.837 165.251C119.454 165.748 119.263 166.459 119.263 167.384ZM132.36 171H131.096V164.649H127.691V171H126.42V163.604H132.36V171ZM137.46 171.137C136.457 171.137 135.642 170.809 135.013 170.152C134.384 169.492 134.069 168.61 134.069 167.507V167.274C134.069 166.541 134.208 165.887 134.486 165.312C134.769 164.734 135.161 164.283 135.662 163.959C136.168 163.631 136.715 163.467 137.303 163.467C138.264 163.467 139.012 163.784 139.545 164.417C140.078 165.05 140.345 165.957 140.345 167.138V167.664H135.334C135.352 168.393 135.564 168.983 135.97 169.435C136.38 169.881 136.899 170.104 137.528 170.104C137.975 170.104 138.353 170.013 138.663 169.831C138.973 169.649 139.244 169.407 139.477 169.106L140.249 169.708C139.629 170.66 138.7 171.137 137.46 171.137ZM137.303 164.506C136.792 164.506 136.364 164.693 136.018 165.066C135.671 165.436 135.457 165.955 135.375 166.625H139.08V166.529C139.044 165.887 138.87 165.39 138.561 165.039C138.251 164.684 137.831 164.506 137.303 164.506ZM146.6 163.604H147.864V171H146.6V165.606L143.188 171H141.924V163.604H143.188V169.004L146.6 163.604ZM146.941 160.91C146.941 161.462 146.752 161.906 146.374 162.243C146 162.576 145.508 162.742 144.897 162.742C144.287 162.742 143.792 162.574 143.414 162.236C143.036 161.899 142.847 161.457 142.847 160.91H143.879C143.879 161.229 143.965 161.48 144.139 161.662C144.312 161.84 144.565 161.929 144.897 161.929C145.216 161.929 145.465 161.84 145.643 161.662C145.825 161.484 145.916 161.234 145.916 160.91H146.941ZM152.861 170.104C153.312 170.104 153.707 169.968 154.044 169.694C154.381 169.421 154.568 169.079 154.604 168.669H155.801C155.778 169.093 155.632 169.496 155.363 169.879C155.094 170.262 154.734 170.567 154.283 170.795C153.837 171.023 153.363 171.137 152.861 171.137C151.854 171.137 151.052 170.802 150.455 170.132C149.863 169.457 149.566 168.537 149.566 167.37V167.158C149.566 166.438 149.699 165.798 149.963 165.237C150.227 164.677 150.605 164.242 151.098 163.932C151.594 163.622 152.18 163.467 152.854 163.467C153.684 163.467 154.372 163.715 154.919 164.212C155.47 164.709 155.764 165.354 155.801 166.146H154.604C154.568 165.668 154.386 165.276 154.058 164.971C153.734 164.661 153.333 164.506 152.854 164.506C152.212 164.506 151.713 164.738 151.357 165.203C151.007 165.663 150.831 166.331 150.831 167.206V167.445C150.831 168.298 151.007 168.954 151.357 169.414C151.708 169.874 152.21 170.104 152.861 170.104ZM159.526 167.849H158.604V171H157.332V163.604H158.604V166.734H159.431L161.919 163.604H163.45L160.524 167.158L163.696 171H162.09L159.526 167.849ZM169.35 171C169.277 170.854 169.217 170.594 169.172 170.221C168.584 170.831 167.882 171.137 167.066 171.137C166.337 171.137 165.738 170.932 165.269 170.521C164.804 170.107 164.571 169.583 164.571 168.949C164.571 168.179 164.863 167.582 165.446 167.158C166.034 166.73 166.859 166.516 167.921 166.516H169.151V165.935C169.151 165.493 169.019 165.142 168.755 164.882C168.491 164.618 168.101 164.485 167.586 164.485C167.135 164.485 166.757 164.599 166.451 164.827C166.146 165.055 165.993 165.331 165.993 165.654H164.722C164.722 165.285 164.852 164.93 165.111 164.588C165.376 164.242 165.731 163.968 166.178 163.768C166.629 163.567 167.123 163.467 167.661 163.467C168.513 163.467 169.181 163.681 169.664 164.109C170.147 164.533 170.398 165.119 170.416 165.866V169.271C170.416 169.95 170.503 170.49 170.676 170.891V171H169.35ZM167.251 170.036C167.647 170.036 168.023 169.934 168.379 169.729C168.734 169.523 168.992 169.257 169.151 168.929V167.411H168.16C166.611 167.411 165.836 167.865 165.836 168.771C165.836 169.168 165.968 169.478 166.232 169.701C166.497 169.924 166.836 170.036 167.251 170.036ZM178.052 163.604V171H176.78V168.122H174.873L173.13 171H171.763L173.622 167.931C173.148 167.757 172.784 167.491 172.528 167.131C172.278 166.766 172.152 166.342 172.152 165.859C172.152 165.185 172.405 164.643 172.911 164.232C173.417 163.818 174.094 163.608 174.941 163.604H178.052ZM173.424 165.873C173.424 166.233 173.547 166.525 173.793 166.748C174.039 166.967 174.365 167.078 174.771 167.083H176.78V164.629H174.962C174.493 164.629 174.119 164.745 173.841 164.978C173.563 165.205 173.424 165.504 173.424 165.873Z" fill="#626262"/>
<path fill-rule="evenodd" clip-rule="evenodd" d="M276 166C276 157.163 283.163 150 292 150H360C368.837 150 376 157.163 376 166C376 174.837 368.837 182 360 182H292C283.163 182 276 174.837 276 166Z" fill="#262626"/>
<path d="M297.726 166.896H299.008V167.854H297.726V170H296.545V167.854H292.336V167.163L296.475 160.758H297.726V166.896ZM293.669 166.896H296.545V162.364L296.405 162.618L293.669 166.896ZM305.863 166.058C305.863 167.433 305.628 168.455 305.159 169.124C304.689 169.793 303.955 170.127 302.956 170.127C301.97 170.127 301.24 169.801 300.766 169.149C300.292 168.493 300.047 167.516 300.03 166.217V164.649C300.03 163.291 300.265 162.281 300.734 161.621C301.204 160.961 301.94 160.631 302.943 160.631C303.938 160.631 304.67 160.95 305.14 161.589C305.609 162.224 305.851 163.206 305.863 164.535V166.058ZM304.689 164.452C304.689 163.458 304.549 162.734 304.27 162.281C303.991 161.824 303.549 161.596 302.943 161.596C302.342 161.596 301.904 161.822 301.629 162.275C301.354 162.728 301.213 163.424 301.204 164.363V166.242C301.204 167.241 301.348 167.979 301.636 168.458C301.928 168.931 302.368 169.168 302.956 169.168C303.536 169.168 303.965 168.944 304.245 168.496C304.528 168.047 304.676 167.34 304.689 166.375V164.452ZM313.157 166.553H310.059V165.595H313.157V166.553ZM317.949 165.366L318.419 160.758H323.154V161.843H319.416L319.136 164.363C319.589 164.097 320.103 163.963 320.679 163.963C321.521 163.963 322.189 164.243 322.685 164.801C323.18 165.356 323.427 166.107 323.427 167.055C323.427 168.007 323.169 168.758 322.653 169.308C322.141 169.854 321.424 170.127 320.501 170.127C319.684 170.127 319.018 169.901 318.501 169.448C317.985 168.995 317.691 168.369 317.619 167.569H318.73C318.802 168.098 318.99 168.498 319.295 168.769C319.6 169.035 320.002 169.168 320.501 169.168C321.047 169.168 321.474 168.982 321.783 168.61C322.096 168.237 322.253 167.723 322.253 167.067C322.253 166.45 322.084 165.954 321.745 165.582C321.411 165.205 320.964 165.017 320.406 165.017C319.894 165.017 319.492 165.129 319.2 165.354L318.889 165.607L317.949 165.366ZM330.505 166.058C330.505 167.433 330.27 168.455 329.8 169.124C329.331 169.793 328.596 170.127 327.598 170.127C326.612 170.127 325.882 169.801 325.408 169.149C324.934 168.493 324.688 167.516 324.671 166.217V164.649C324.671 163.291 324.906 162.281 325.376 161.621C325.846 160.961 326.582 160.631 327.585 160.631C328.579 160.631 329.312 160.95 329.781 161.589C330.251 162.224 330.492 163.206 330.505 164.535V166.058ZM329.331 164.452C329.331 163.458 329.191 162.734 328.912 162.281C328.632 161.824 328.19 161.596 327.585 161.596C326.984 161.596 326.546 161.822 326.271 162.275C325.996 162.728 325.854 163.424 325.846 164.363V166.242C325.846 167.241 325.99 167.979 326.277 168.458C326.569 168.931 327.009 169.168 327.598 169.168C328.177 169.168 328.607 168.944 328.886 168.496C329.17 168.047 329.318 167.34 329.331 166.375V164.452ZM339.309 168.445L341.645 163.132H343.111V170H341.937V165.004L339.715 170H338.903L336.637 164.896V170H335.462V163.132H336.986L339.309 168.445ZM349.446 163.132H350.621V170H349.446V164.992L346.279 170H345.104V163.132H346.279V168.146L349.446 163.132ZM358.117 170H356.943V167.067H353.788V170H352.607V163.132H353.788V166.109H356.943V163.132H358.117V170Z" fill="white"/>
<path d="M74.6543 64.1836H66.4277V87H63.0703V64.1836H54.8613V61.4062H74.6543V64.1836ZM92.0742 77.7012C92.0742 80.5957 91.4121 82.9277 90.0879 84.6973C88.7637 86.4668 86.9707 87.3516 84.709 87.3516C82.4004 87.3516 80.584 86.6191 79.2598 85.1543V94.3125H76.0078V67.9805H78.9785L79.1367 70.0898C80.4609 68.4492 82.3008 67.6289 84.6562 67.6289C86.9414 67.6289 88.7461 68.4902 90.0703 70.2129C91.4062 71.9355 92.0742 74.332 92.0742 77.4023V77.7012ZM88.8223 77.332C88.8223 75.1875 88.3652 73.4941 87.4512 72.252C86.5371 71.0098 85.2832 70.3887 83.6895 70.3887C81.7207 70.3887 80.2441 71.2617 79.2598 73.0078V82.0957C80.2324 83.8301 81.7207 84.6973 83.7246 84.6973C85.2832 84.6973 86.5195 84.082 87.4336 82.8516C88.3594 81.6094 88.8223 79.7695 88.8223 77.332ZM107.965 87C107.777 86.625 107.625 85.957 107.508 84.9961C105.996 86.5664 104.191 87.3516 102.094 87.3516C100.219 87.3516 98.6777 86.8242 97.4707 85.7695C96.2754 84.7031 95.6777 83.3555 95.6777 81.7266C95.6777 79.7461 96.4277 78.2109 97.9277 77.1211C99.4395 76.0195 101.561 75.4688 104.291 75.4688H107.455V73.9746C107.455 72.8379 107.115 71.9355 106.436 71.2676C105.756 70.5879 104.754 70.248 103.43 70.248C102.27 70.248 101.297 70.541 100.512 71.127C99.7266 71.7129 99.334 72.4219 99.334 73.2539H96.0645C96.0645 72.3047 96.3984 71.3906 97.0664 70.5117C97.7461 69.6211 98.6602 68.918 99.8086 68.4023C100.969 67.8867 102.24 67.6289 103.623 67.6289C105.814 67.6289 107.531 68.1797 108.773 69.2812C110.016 70.3711 110.66 71.877 110.707 73.7988V82.5527C110.707 84.2988 110.93 85.6875 111.375 86.7188V87H107.965ZM102.568 84.5215C103.588 84.5215 104.555 84.2578 105.469 83.7305C106.383 83.2031 107.045 82.5176 107.455 81.6738V77.7715H104.906C100.922 77.7715 98.9297 78.9375 98.9297 81.2695C98.9297 82.2891 99.2695 83.0859 99.9492 83.6602C100.629 84.2344 101.502 84.5215 102.568 84.5215ZM121.729 78.8965H119.355V87H116.086V67.9805H119.355V76.0312H121.482L127.881 67.9805H131.818L124.295 77.1211L132.451 87H128.32L121.729 78.8965ZM149.379 70.6172H142.998V87H139.746V70.6172H133.488V67.9805H149.379V70.6172ZM164.848 67.9805H168.1V87H164.848V73.1309L156.076 87H152.824V67.9805H156.076V81.8672L164.848 67.9805ZM189.387 77.7012C189.387 80.5957 188.725 82.9277 187.4 84.6973C186.076 86.4668 184.283 87.3516 182.021 87.3516C179.713 87.3516 177.896 86.6191 176.572 85.1543V94.3125H173.32V67.9805H176.291L176.449 70.0898C177.773 68.4492 179.613 67.6289 181.969 67.6289C184.254 67.6289 186.059 68.4902 187.383 70.2129C188.719 71.9355 189.387 74.332 189.387 77.4023V77.7012ZM186.135 77.332C186.135 75.1875 185.678 73.4941 184.764 72.252C183.85 71.0098 182.596 70.3887 181.002 70.3887C179.033 70.3887 177.557 71.2617 176.572 73.0078V82.0957C177.545 83.8301 179.033 84.6973 181.037 84.6973C182.596 84.6973 183.832 84.082 184.746 82.8516C185.672 81.6094 186.135 79.7695 186.135 77.332ZM204.926 77.3672L209.461 84.3457H206.982L201.797 77.5254V77.1914L206.982 70.3535H209.461L204.926 77.3672ZM210.727 77.3672L215.262 84.3457H212.783L207.598 77.5254V77.1914L212.783 70.3535H215.262L210.727 77.3672ZM239.432 87H236.039V64.1836H223.418V87H220.043V61.4062H239.432V87ZM251.297 82.2363L255.727 67.9805H259.207L251.561 89.9355C250.377 93.0996 248.496 94.6816 245.918 94.6816L245.303 94.6289L244.09 94.4004V91.7637L244.969 91.834C246.07 91.834 246.926 91.6113 247.535 91.166C248.156 90.7207 248.666 89.9062 249.064 88.7227L249.785 86.7891L243 67.9805H246.551L251.297 82.2363ZM265.676 67.9805V84.3457H272.637V67.9805H275.889V84.3457H282.832V67.9805H286.102V87H262.406V67.9805H265.676ZM297.158 78.8965H294.785V87H291.516V67.9805H294.785V76.0312H296.912L303.311 67.9805H307.248L299.725 77.1211L307.881 87H303.75L297.158 78.8965ZM322.98 67.9805H326.232V87H322.98V73.1309L314.209 87H310.957V67.9805H314.209V81.8672L322.98 67.9805ZM346.992 87H343.74V78.8789H335.004V87H331.734V67.9805H335.004V76.2246H343.74V67.9805H346.992V87ZM354.059 70.3184L359.244 77.1562V77.4902L354.059 84.3281H351.562L356.098 77.332L351.562 70.3184H354.059ZM360.193 70.3184L365.379 77.1562V77.4902L360.193 84.3281H357.697L362.232 77.332L357.697 70.3184H360.193Z" fill="#1D1D1D"/>
<defs>
<filter id="filter0_d_0_391" x="0" y="0" width="421" height="236" filterUnits="userSpaceOnUse" color-interpolation-filters="sRGB">
<feFlood flood-opacity="0" result="BackgroundImageFix"/>
<feColorMatrix in="SourceAlpha" type="matrix" values="0 0 0 0 0 0 0 0 0 0 0 0 0 0 0 0 0 0 127 0" result="hardAlpha"/>
<feOffset/>
<feGaussianBlur stdDeviation="8"/>
<feColorMatrix type="matrix" values="0 0 0 0 0.458824 0 0 0 0 0.458824 0 0 0 0 0.458824 0 0 0 0.2 0"/>
<feBlend mode="normal" in2="BackgroundImageFix" result="effect1_dropShadow_0_391"/>
<feBlend mode="normal" in="SourceGraphic" in2="effect1_dropShadow_0_391" result="shape"/>
</filter>
</defs>
</svg>
